<svg width="100" height="100" viewBox="0 0 100 100" fill="none" xmlns="http://www.w3.org/2000/svg">
<path d="M99.6 50C99.6 43.6348 94.3743 37.5303 85.0725 33.0294C75.7707 28.5286 63.1547 26 50 26C36.8453 26 24.2293 28.5286 14.9275 33.0294C5.6257 37.5303 0.399996 43.6348 0.399994 50L50 50H99.6Z" fill="black"/>
<path d="M0.400019 50C0.400018 56.3652 5.62572 62.4697 14.9275 66.9706C24.2293 71.4714 36.8453 74 50 74C63.1547 74 75.7707 71.4714 85.0725 66.9706C94.3743 62.4697 99.6 56.3652 99.6 50L50 50L0.400019 50Z" fill="black"/>
<circle cx="50" cy="50" r="14.4" fill="white"/>
<circle cx="50" cy="50" r="6.4" fill="black"/>
</svg>
